<?xml version="1.0" encoding="utf-8"?>
<!-- Generator: Adobe Illustrator 25.4.1, SVG Export Plug-In . SVG Version: 6.00 Build 0)  -->
<svg version="1.1" id="LOGO_00000134226837147780267090000016072033109666059136_"
	 xmlns="http://www.w3.org/2000/svg" xmlns:xlink="http://www.w3.org/1999/xlink" x="0px" y="0px" viewBox="0 0 960 960"
	 style="enable-background:new 0 0 960 960;" xml:space="preserve">
<style type="text/css">
	.st0{fill-rule:evenodd;clip-rule:evenodd;fill:#74402F;}
	.st1{fill-rule:evenodd;clip-rule:evenodd;fill:#744534;}
	.st2{fill-rule:evenodd;clip-rule:evenodd;fill:#7B4A38;}
	.st3{fill-rule:evenodd;clip-rule:evenodd;fill:#32B12E;}
	.st4{fill-rule:evenodd;clip-rule:evenodd;fill:#279523;}
	.st5{fill-rule:evenodd;clip-rule:evenodd;fill:#29B825;}
	.st6{fill-rule:evenodd;clip-rule:evenodd;fill:#30CB2B;}
	.st7{fill-rule:evenodd;clip-rule:evenodd;fill:#4EE448;}
	.st8{fill-rule:evenodd;clip-rule:evenodd;fill:#53E44E;}
	.st9{fill-rule:evenodd;clip-rule:evenodd;fill:#44D83F;}
	.st10{fill-rule:evenodd;clip-rule:evenodd;fill:#61E45C;}
	.st11{fill-rule:evenodd;clip-rule:evenodd;fill:#2DAD2A;}
	.st12{fill-rule:evenodd;clip-rule:evenodd;fill:#3BC237;}
	.st13{fill-rule:evenodd;clip-rule:evenodd;fill:#3DE337;}
	.st14{fill-rule:evenodd;clip-rule:evenodd;fill:#3EDC39;}
	.st15{fill-rule:evenodd;clip-rule:evenodd;fill:#2EB42A;}
	.st16{fill-rule:evenodd;clip-rule:evenodd;fill:#289C24;}
	.st17{fill-rule:evenodd;clip-rule:evenodd;fill:#31912E;}
	.st18{fill-rule:evenodd;clip-rule:evenodd;fill:#54E94F;}
	.st19{fill-rule:evenodd;clip-rule:evenodd;fill:#38CD33;}
	.st20{fill-rule:evenodd;clip-rule:evenodd;fill:#30B62C;}
	.st21{fill-rule:evenodd;clip-rule:evenodd;fill:#46E641;}
	.st22{fill-rule:evenodd;clip-rule:evenodd;fill:#44DE3F;}
	.st23{fill-rule:evenodd;clip-rule:evenodd;fill:#3FD43B;}
	.st24{fill-rule:evenodd;clip-rule:evenodd;fill:#47DF42;}
	.st25{fill-rule:evenodd;clip-rule:evenodd;fill:#41CF3C;}
	.st26{fill-rule:evenodd;clip-rule:evenodd;fill:#54E450;}
	.st27{fill-rule:evenodd;clip-rule:evenodd;fill:#2BA828;}
	.st28{fill-rule:evenodd;clip-rule:evenodd;fill:#5CE857;}
	.st29{fill-rule:evenodd;clip-rule:evenodd;fill:#51D84C;}
	.st30{fill-rule:evenodd;clip-rule:evenodd;fill:#36BD31;}
	.st31{fill-rule:evenodd;clip-rule:evenodd;fill:#5FEC59;}
</style>
<g id="Trunk_00000161618083361342388910000012913139320416953736_">
	<g id="Shape_66">
	</g>
	<g id="Shape_64">
	</g>
	<g id="Shape_65">
	</g>
	<g id="Shape_10">
		<g>
			<polygon class="st0" points="538.19,822.28 494.77,827.47 445.78,818.19 425.74,806.32 440.59,893.9 458.77,913.57 508.5,926.18 
				554.88,919.5 			"/>
		</g>
	</g>
	<g id="Shape_11">
		<g>
			<polygon class="st1" points="559.71,807.8 537.44,821.91 554.51,919.87 574.55,902.8 			"/>
		</g>
	</g>
	<g id="Shape_12">
		<g>
			<polygon class="st2" points="551.54,799.64 533.36,811.89 491.43,817.08 450.98,808.55 433.91,797.41 425.74,806.69 
				446.9,819.68 494.4,828.58 537.81,823.39 559.71,808.17 			"/>
		</g>
	</g>
	<g id="Shape_72">
	</g>
	<g id="Shape_67">
		<g>
			<polygon class="st0" points="522.97,723.94 481.41,728.02 444.67,720.6 421.66,707.24 433.54,797.78 450.24,808.92 
				490.68,817.82 534.1,812.63 			"/>
		</g>
	</g>
	<g id="Shape_78">
		<g>
			<polygon class="st1" points="539.3,712.8 522.6,723.94 533.73,811.89 551.17,800.75 			"/>
		</g>
	</g>
	<g id="Shape_76">
	</g>
	<g id="Shape_14">
		<g>
			<polygon class="st2" points="534.1,705.38 520,715.03 479.55,718.37 446.52,713.54 430.2,701.3 421.29,707.24 444.67,722.45 
				481.41,728.39 521.86,724.68 539.67,712.8 			"/>
		</g>
	</g>
	<g id="Shape_73">
	</g>
	<g id="Shape_74">
	</g>
	<g id="Shape_15">
		<g>
			<polygon class="st0" points="521.49,601.47 507.38,608.9 478.07,611.49 445.41,607.04 431.31,599.62 429.82,702.04 
				446.52,714.29 480.67,719.85 520.37,715.4 533.73,705.75 			"/>
		</g>
	</g>
	<g id="Shape_75">
	</g>
	<g id="Shape_16">
		<g>
			<polygon class="st2" points="517.03,594.79 504.04,602.22 476.95,604.81 448.75,599.62 436.13,593.68 431.31,599.99 
				445.04,608.15 477.7,611.86 507.01,609.64 521.49,601.84 			"/>
		</g>
	</g>
	<g id="Shape_17">
		<g>
			<polygon class="st0" points="512.21,481.61 485.12,484.58 459.88,483.09 448.38,477.53 436.5,594.05 449.12,600.73 
				476.58,605.18 504.42,602.59 517.03,595.16 524.83,475.67 			"/>
		</g>
	</g>
	<g id="Shape_19">
		<g>
			<polygon class="st0" points="504.04,362.86 472.5,356.55 451.35,472.7 481.41,491.26 508.87,480.12 520.74,485.32 529.65,358.78 
							"/>
		</g>
	</g>
	<g id="Shape_16_copy">
		<g>
			<polygon class="st2" points="522.23,470.85 514.06,476.04 488.46,479.38 460.63,477.53 451.35,472.33 448.38,477.9 
				459.88,483.46 488.09,484.95 514.47,481.98 524.83,475.67 			"/>
		</g>
	</g>
	<g id="Shape_16_copy_2">
		<g>
			<polygon class="st2" points="529.28,354.69 521.29,358.41 503.1,360.76 481.1,359.29 473.77,355.18 471.76,359.52 480.51,363.98 
				502.81,365.16 523.66,362.81 529.65,359.15 			"/>
		</g>
	</g>
	<g id="Shape_68">
	</g>
	<g id="Shape_77">
	</g>
	<g id="Shape_78_copy">
		<g>
			<polygon class="st1" points="521.49,601.1 506.64,610.01 520.37,715.4 533.73,706.49 			"/>
		</g>
	</g>
	<g id="Shape_78_copy_2">
		<g>
			<polygon class="st1" points="515.18,481.61 504.79,602.22 517.03,595.54 524.34,476.32 			"/>
		</g>
	</g>
	<g id="Shape_78_copy_3">
		<g>
			<polygon class="st1" points="523.71,362.86 514.43,476.41 521.49,471.59 529.65,358.41 			"/>
		</g>
	</g>
	<g id="Shape_81">
	</g>
	<g id="Shape_80">
	</g>
	<g id="Shape_79">
	</g>
	<g id="Shape_69">
		<g>
			<path class="st0" d="M539.3,234.83c-0.73,0.53-20.41-12.99-20.41-12.99l-20.41,7.42l-26.35,126.17l1.11,0.37l9.28,4.45L503.3,361
				l18.93-1.86l7.05-4.45l7.42-71.62C536.7,283.07,540.03,234.3,539.3,234.83z"/>
		</g>
	</g>
	<g id="Shape_70">
	</g>
	<g id="Shape_71">
	</g>
	<g id="Shape_82">
		<g>
			<polygon class="st1" points="529.65,306.08 523.34,358.78 529.28,354.69 534.47,310.16 			"/>
		</g>
	</g>
</g>
<g id="Palms_00000073688315212534354270000012056708480198055349_">
	<g id="Shape_22">
		<g>
			<polygon class="st3" points="232.77,329.46 198.63,549.15 289.92,351.35 			"/>
		</g>
	</g>
	<g id="Shape_23">
		<g>
			<polygon class="st4" points="288.07,352.1 198.63,548.78 216.07,563.99 382.7,428.91 			"/>
		</g>
	</g>
	<g id="Shape_24">
		<g>
			<polygon class="st5" points="383.81,270.08 286.58,350.98 381.95,429.66 475.1,356.55 			"/>
		</g>
	</g>
	<g id="Shape_25">
		<g>
			<polygon class="st6" points="322.21,255.98 232.03,329.46 287.69,352.47 384.55,270.08 			"/>
		</g>
	</g>
	<g id="Shape_26">
		<g>
			<polygon class="st7" points="479.55,247.45 322.21,255.98 381.58,271.57 474.73,356.92 497.36,281.96 511.1,277.13 
				511.84,265.26 			"/>
		</g>
	</g>
	<g id="Shape_28">
		<g>
			<polygon class="st8" points="487.68,50.47 389.1,45.29 417.28,75.72 515.37,82.73 			"/>
		</g>
	</g>
	<g id="Shape_62">
	</g>
	<g id="Shape_29">
		<g>
			<polygon class="st9" points="514.68,81.94 417.28,75.72 490,165.52 530.29,163.63 			"/>
		</g>
	</g>
	<g id="Shape_30">
		<g>
			<polygon class="st10" points="514.3,81.94 528.09,163.14 543.38,183.62 561.77,124.76 			"/>
		</g>
	</g>
	<g id="Shape_59">
	</g>
	<g id="Shape_31">
		<g>
			<polygon class="st11" points="490.03,165.15 513.94,233.24 523.8,236.1 528.48,162.77 			"/>
		</g>
	</g>
	<g id="Shape_32">
		<g>
			<polygon class="st12" points="528.13,162.4 523.43,236.1 528.42,239.39 543.55,183.09 			"/>
		</g>
	</g>
	<g id="Shape_33">
		<g>
			<polygon class="st13" points="556.74,248.93 524.83,254.13 518.15,295.32 594.22,285.67 			"/>
		</g>
	</g>
	<g id="Shape_34">
		<g>
			<polygon class="st14" points="592.37,285.3 518.15,294.95 553.77,379.56 625.39,378.82 			"/>
		</g>
	</g>
	<g id="Shape_35">
		<g>
			<polygon class="st15" points="625.76,378.82 553.03,379.19 618.71,568.07 630.96,559.91 			"/>
		</g>
	</g>
	<g id="Shape_37">
		<g>
			<polygon class="st16" points="624.65,378.44 630.59,559.54 645.06,572.16 722.62,418.89 			"/>
		</g>
	</g>
	<g id="Shape_61">
		<g>
			<polygon class="st17" points="630.59,558.8 618.34,567.7 645.06,571.79 			"/>
		</g>
	</g>
	<g id="Shape_38">
		<g>
			<polygon class="st18" points="695.16,340.22 557.11,249.67 592.37,285.3 624.65,378.44 722.62,418.89 			"/>
		</g>
	</g>
	<g id="Shape_39">
		<g>
			<polygon class="st19" points="195.66,92.7 60.21,181.02 206.8,107.91 			"/>
		</g>
	</g>
	<g id="Shape_40">
		<g>
			<polygon class="st20" points="206.8,107.54 60.58,180.65 64.29,189.18 223.5,169.89 			"/>
		</g>
	</g>
	<g id="Shape_41">
		<g>
			<polygon class="st21" points="195.66,92.7 206.8,108.29 345.59,116.45 			"/>
		</g>
	</g>
	<g id="Shape_42">
		<g>
			<polygon class="st22" points="345.96,116.08 206.8,107.91 223.12,170.26 358.95,188.07 			"/>
		</g>
	</g>
	<g id="Shape_43">
		<g>
			<polygon class="st23" points="216.44,81.94 195.66,92.7 258.01,102.72 			"/>
		</g>
	</g>
	<g id="Shape_44">
		<g>
			<polygon class="st24" points="298.46,58.93 216.44,81.94 256.52,102.72 346.7,116.82 389.75,89.73 			"/>
		</g>
	</g>
	<g id="Shape_45">
		<g>
			<path class="st25" d="M475.1,183.25l-52.32-69.4l-33.4-24.49l-43.79,27.09c0,0,124.32,80.53,146.47,96.14L475.1,183.25z"/>
		</g>
	</g>
	<g id="Shape_46">
		<g>
			<polygon class="st26" points="463.22,178.79 345.21,116.08 358.57,188.07 468.42,214.79 508.87,250.42 			"/>
		</g>
	</g>
	<g id="Shape_58">
	</g>
	<g id="Shape_47">
		<g>
			<polygon class="st27" points="511.84,265.63 508.5,249.67 468.79,214.42 459.51,212.19 463.59,219.99 480.67,241.14 
				479.92,247.82 			"/>
		</g>
	</g>
	<g id="Shape_49">
		<g>
			<polygon class="st28" points="811.31,219.61 715.57,186.22 622.8,204.03 597.56,212.19 558.97,202.17 554.14,223.33 
				540.41,230.75 537.44,242.99 630.96,209.6 757.5,208.48 854.73,245.96 			"/>
		</g>
	</g>
	<g id="Shape_50">
		<g>
			<polygon class="st29" points="854.36,245.59 757.87,208.11 766.04,263.78 841.37,286.78 846.94,294.21 869.95,299.4 			"/>
		</g>
	</g>
	<g id="Shape_60">
		<g>
			<polygon class="st30" points="854.36,245.59 841.74,286.78 846.57,294.95 870.32,300.14 			"/>
		</g>
	</g>
	<g id="Shape_52">
		<g>
			<polygon class="st30" points="757.87,208.48 630.96,209.6 627.25,234.46 766.78,264.15 			"/>
		</g>
	</g>
	<g id="Shape_53">
		<g>
			<polygon class="st23" points="717.05,320.92 598.3,277.13 694.79,340.22 718.91,408.13 730.78,408.87 760.1,439.3 795.73,411.1 
							"/>
		</g>
	</g>
	<g id="Shape_54">
		<g>
			<polygon class="st31" points="747.11,330.2 716.68,320.92 794.24,411.84 835.8,408.5 			"/>
		</g>
	</g>
	<g id="Shape_55">
		<g>
			<polygon class="st3" points="793.5,411.47 825.04,599.25 835.43,408.5 			"/>
		</g>
	</g>
	<g id="Shape_56">
		<g>
			<polygon class="st17" points="793.87,411.84 759.36,438.93 816.88,598.88 825.04,598.5 			"/>
		</g>
	</g>
	<g id="Shape_57">
		<g>
			<polygon class="st15" points="537.07,242.62 627.62,234.46 631.33,209.6 			"/>
		</g>
	</g>
	<g id="Shape_63">
	</g>
</g>
</svg>
